Coordinates
version=1
nRows=30
nColumns=34
inDegrees=no

Units are S.I. units (second, meters, Newtons, ...)
If the header above contains a line with 'inDegrees', this indicates whether rotational values are in degrees (yes) or radians (no).

endheader
time	pelvis_tilt	pelvis_list	pelvis_rotation	pelvis_tx	pelvis_ty	pelvis_tz	hip_flexion_r	hip_adduction_r	hip_rotation_r	knee_angle_r	ankle_angle_r	subtalar_angle_r	mtp_angle_r	hip_flexion_l	hip_adduction_l	hip_rotation_l	knee_angle_l	ankle_angle_l	subtalar_angle_l	mtp_angle_l	lumbar_extension	lumbar_bending	lumbar_rotation	arm_flex_r	arm_add_r	arm_rot_r	elbow_flex_r	pro_sup_r	arm_flex_l	arm_add_l	arm_rot_l	elbow_flex_l	pro_sup_l
0.45	0.0280098	-0.0322465	0.0096774	0.419644	0.948756	-0.234681	-0.145511	0.060223	0.0809964	0.214622	0.495417	0.394007	0	0.409425	-0.0883899	0.215521	0.0592261	0.115213	0.251454	0	-0.182172	0.0437694	-0.0176335	-0.293851	-0.19267	-0.183105	0.786652	2.09	-0.261762	-0.107281	-0.418518	0.579329	2.09
0.46	0.0290165	-0.0336599	0.00647265	0.431877	0.94624	-0.235241	-0.16192	0.0605446	0.0832943	0.214079	0.505808	0.396596	0	0.409534	-0.0904512	0.222457	0.0378298	0.115142	0.232695	0	-0.185261	0.0448067	-0.0175829	-0.289322	-0.191455	-0.190997	0.786953	2.09	-0.260595	-0.108729	-0.420478	0.577803	2.09
0.47	0.0290674	-0.0345024	0.00323868	0.44425	0.943742	-0.235801	-0.177478	0.0601526	0.0857413	0.213435	0.514676	0.398537	0	0.410944	-0.0915016	0.229774	0.0221119	0.114803	0.213442	0	-0.187013	0.0448457	-0.0175811	-0.285248	-0.189714	-0.198485	0.786737	2.09	-0.259323	-0.110288	-0.423269	0.576435	2.09
0.48	0.0279918	-0.0348258	-3.67166e-05	0.456759	0.941264	-0.236361	-0.191815	0.0591532	0.088506	0.212987	0.521802	0.39942	0	0.414405	-0.0916107	0.233536	0.0132262	0.116352	0.200695	0	-0.187211	0.0439354	-0.0175696	-0.281728	-0.187659	-0.204897	0.786051	2.09	-0.258013	-0.111971	-0.426688	0.575293	2.09
0.49	0.0262699	-0.0344497	-0.0033903	0.469421	0.938855	-0.236939	-0.205376	0.0573083	0.0914661	0.21285	0.527164	0.399528	0	0.418767	-0.0905831	0.236332	0.0101628	0.118727	0.190206	0	-0.186376	0.0419062	-0.017287	-0.278958	-0.185197	-0.210752	0.785204	2.09	-0.256584	-0.113779	-0.430671	0.574599	2.09
0.5	0.0240033	-0.0333674	-0.00675457	0.482242	0.936531	-0.237554	-0.218036	0.0546186	0.0944363	0.213409	0.530639	0.398925	0	0.423842	-0.0883839	0.237145	0.0127462	0.121937	0.183159	0	-0.184576	0.0387814	-0.0167309	-0.277003	-0.18254	-0.215535	0.7842	2.09	-0.255142	-0.115773	-0.434696	0.57456	2.09
0.51	0.0214144	-0.031648	-0.0100574	0.495235	0.934314	-0.238226	-0.229813	0.0511384	0.097029	0.215041	0.532186	0.398073	0	0.429153	-0.0850925	0.235533	0.020384	0.125235	0.179876	0	-0.182024	0.0346845	-0.015869	-0.275932	-0.179914	-0.218774	0.783072	2.09	-0.253759	-0.118052	-0.437993	0.575307	2.09
0.52	0.0188994	-0.0287877	-0.0133883	0.508431	0.932246	-0.238958	-0.241153	0.0463056	0.0993516	0.217665	0.531738	0.396884	0	0.433996	-0.0802702	0.230163	0.0324169	0.127544	0.180749	0	-0.179107	0.0290404	-0.0145833	-0.275727	-0.177072	-0.221182	0.781689	2.09	-0.252486	-0.120589	-0.440939	0.57724	2.09
0.53	0.0164861	-0.0250372	-0.0167275	0.521837	0.930332	-0.239747	-0.251885	0.0403911	0.101146	0.221649	0.529156	0.395694	0	0.438369	-0.0743382	0.219584	0.0482788	0.127699	0.188586	0	-0.175839	0.0221584	-0.0129558	-0.276304	-0.174388	-0.221727	0.779924	2.09	-0.251424	-0.123473	-0.442744	0.580221	2.09
0.54	0.0142246	-0.0203387	-0.0201001	0.535471	0.928589	-0.240594	-0.261949	0.033283	0.101964	0.227157	0.524405	0.39521	0	0.441735	-0.0673115	0.206677	0.0663918	0.122906	0.199151	0	-0.172237	0.014012	-0.011043	-0.277582	-0.171919	-0.220309	0.777624	2.09	-0.250585	-0.126681	-0.443347	0.58404	2.09
0.55	0.0117078	-0.0147303	-0.0236363	0.549294	0.927	-0.241459	-0.270367	0.0248958	0.100417	0.235017	0.51788	0.397679	0	0.446755	-0.0600704	0.176677	0.0897982	0.118665	0.235913	0	-0.167907	0.0045839	-0.00905296	-0.279166	-0.169687	-0.216581	0.774361	2.09	-0.250072	-0.130023	-0.443727	0.588695	2.09
0.56	0.009696	-0.00782078	-0.0272088	0.563368	0.925666	-0.242417	-0.278468	0.0151327	0.0997407	0.244355	0.507958	0.398156	0	0.44705	-0.0504224	0.168615	0.107922	0.0986731	0.238475	0	-0.163563	-0.00632862	-0.00690099	-0.28128	-0.167575	-0.211452	0.770479	2.09	-0.249526	-0.133725	-0.442281	0.593135	2.09
0.57	0.00744741	0.000174909	-0.0308152	0.57759	0.924558	-0.243422	-0.284331	0.0040467	0.0974368	0.256887	0.495336	0.400452	0	0.44732	-0.0395229	0.158395	0.126929	0.0756693	0.245045	0	-0.158535	-0.0185662	-0.00514753	-0.283239	-0.165641	-0.204285	0.76539	2.09	-0.249082	-0.137393	-0.440949	0.597508	2.09
0.58	0.00472909	0.00904697	-0.0342472	0.591905	0.923697	-0.244487	-0.287004	-0.00812993	0.0930965	0.27364	0.47972	0.405113	0	0.448184	-0.0274657	0.147479	0.14708	0.0528731	0.253742	0	-0.152636	-0.0317805	-0.00393647	-0.284977	-0.163735	-0.195752	0.759255	2.09	-0.248481	-0.141039	-0.439385	0.601212	2.09
0.59	0.00138276	0.0185174	-0.0372305	0.606256	0.923105	-0.24563	-0.285526	-0.0211529	0.0862093	0.295756	0.460807	0.412779	0	0.450372	-0.0144593	0.136438	0.16931	0.0343932	0.263701	0	-0.145792	-0.0455588	-0.00348838	-0.286425	-0.161714	-0.186497	0.752238	2.09	-0.247505	-0.144593	-0.437642	0.603901	2.09
0.6	-0.00286289	0.0282554	-0.0394806	0.620584	0.922779	-0.246866	-0.278534	-0.035144	0.0744558	0.324832	0.438865	0.426759	0	0.45514	-0.00109487	0.123113	0.195459	0.0248218	0.277992	0	-0.137801	-0.0594364	-0.00401462	-0.287589	-0.159504	-0.17695	0.744489	2.09	-0.246029	-0.147971	-0.435806	0.605429	2.09
0.61	-0.0076136	0.0376904	-0.0406944	0.634868	0.922762	-0.248209	-0.266414	-0.0492044	0.0611223	0.360694	0.412116	0.441927	0	0.461827	0.0122643	0.110635	0.225396	0.0254014	0.292101	0	-0.129222	-0.0726795	-0.00546828	-0.288734	-0.156892	-0.16833	0.736583	2.09	-0.24372	-0.151145	-0.433597	0.605635	2.09
0.62	-0.012604	0.0465293	-0.0407846	0.649084	0.92307	-0.249664	-0.249111	-0.063212	0.0468606	0.403624	0.379654	0.456833	0	0.469712	0.025206	0.099237	0.258388	0.0359569	0.305621	0	-0.12044	-0.0849179	-0.0078397	-0.289974	-0.153888	-0.160928	0.728778	2.09	-0.240478	-0.154078	-0.43093	0.604648	2.09
0.63	-0.0173637	0.0546883	-0.0398126	0.663214	0.923726	-0.251232	-0.227128	-0.0771493	0.0330249	0.453231	0.340209	0.468685	0	0.476996	0.037712	0.0903384	0.291921	0.0538853	0.316505	0	-0.112077	-0.0960188	-0.0109913	-0.291428	-0.150502	-0.155084	0.721447	2.09	-0.236161	-0.156774	-0.427625	0.602635	2.09
0.64	-0.0214018	0.0623235	-0.0379729	0.677231	0.924744	-0.252906	-0.201229	-0.0911464	0.0209705	0.508596	0.292539	0.474444	0	0.48161	0.0500871	0.0850879	0.322798	0.0755284	0.323002	0	-0.10479	-0.106127	-0.0147682	-0.293112	-0.146804	-0.150866	0.714926	2.09	-0.230643	-0.159264	-0.423552	0.59981	2.09
0.65	-0.0244036	0.0696674	-0.0355572	0.691095	0.926113	-0.254665	-0.17215	-0.105347	0.011641	0.568398	0.235929	0.471828	0	0.48204	0.0625322	0.0832574	0.348396	0.0977335	0.325263	0	-0.099029	-0.115486	-0.019014	-0.294953	-0.142933	-0.148028	0.709489	2.09	-0.223866	-0.161588	-0.418675	0.596414	2.09
0.66	-0.0264335	0.0767403	-0.0329535	0.704761	0.927774	-0.256458	-0.140352	-0.119554	0.00573368	0.631	0.17077	0.459586	0	0.477994	0.0744968	0.0824155	0.367595	0.119083	0.326797	0	-0.0947739	-0.124126	-0.0235054	-0.296859	-0.139101	-0.14603	0.705324	2.09	-0.215893	-0.163796	-0.412961	0.592687	2.09
0.67	-0.0272833	0.0837869	-0.0305069	0.718197	0.929688	-0.258248	-0.106878	-0.133961	0.00304497	0.694335	0.0993883	0.438923	0	0.468764	0.0864193	0.0837383	0.379263	0.137741	0.325299	0	-0.0922824	-0.132336	-0.0282367	-0.298592	-0.13555	-0.144104	0.702473	2.09	-0.206873	-0.165884	-0.406732	0.589016	2.09
0.68	-0.0275679	0.0903398	-0.0286501	0.731369	0.931738	-0.259938	-0.0718196	-0.147584	0.004087	0.756582	0.026295	0.41092	0	0.45588	0.0968542	0.0836541	0.38479	0.154882	0.326281	0	-0.0907755	-0.139669	-0.0329301	-0.300058	-0.132525	-0.141495	0.700814	2.09	-0.197111	-0.167927	-0.399805	0.585588	2.09
0.69	-0.0274913	0.0961744	-0.0276894	0.744269	0.933862	-0.261464	-0.0357843	-0.159838	0.00864012	0.816103	-0.0419241	0.378279	0	0.440121	0.105476	0.0821473	0.385173	0.170692	0.329615	0	-0.0899429	-0.145949	-0.0375251	-0.30105	-0.13019	-0.137618	0.700072	2.09	-0.186905	-0.169962	-0.39222	0.582644	2.09
0.7	-0.0273582	0.10105	-0.0278307	0.756895	0.936007	-0.262777	0.000933277	-0.170141	0.0163205	0.871864	-0.0981855	0.343375	0	0.422519	0.112042	0.0792981	0.381706	0.185443	0.335006	0	-0.0893606	-0.150977	-0.041964	-0.301403	-0.128592	-0.132243	0.699884	2.09	-0.176523	-0.172051	-0.383842	0.580282	2.09
0.71	-0.0274564	0.104834	-0.0291681	0.769256	0.938141	-0.26385	0.0382518	-0.17817	0.0264851	0.923285	-0.13707	0.307602	0	0.403986	0.116533	0.0753588	0.375505	0.199227	0.341816	0	-0.0886557	-0.154656	-0.0461846	-0.30102	-0.12764	-0.125578	0.699891	2.09	-0.16614	-0.174264	-0.374444	0.578483	2.09
0.72	-0.0280129	0.107515	-0.031672	0.781364	0.940248	-0.264685	0.0761646	-0.1839	0.0382307	0.969894	-0.156536	0.271266	0	0.38517	0.11912	0.0706602	0.367316	0.211957	0.349253	0	-0.0875636	-0.156992	-0.050113	-0.29991	-0.127133	-0.118205	0.699824	2.09	-0.155818	-0.176661	-0.363771	0.57716	2.09
0.73	-0.0290026	0.109168	-0.035101	0.793244	0.94234	-0.265318	0.11433	-0.187659	0.0502549	1.01098	-0.158031	0.234958	0	0.366127	0.120276	0.066277	0.357325	0.223247	0.355652	0	-0.0861601	-0.158056	-0.0538431	-0.298154	-0.126818	-0.110942	0.699544	2.09	-0.145553	-0.179187	-0.352009	0.576369	2.09
0.74	-0.0306733	0.109715	-0.0392989	0.804913	0.944399	-0.265762	0.152864	-0.189251	0.0618711	1.04589	-0.146693	0.197055	0	0.347373	0.119885	0.0615773	0.345991	0.233313	0.361819	0	-0.0841816	-0.157756	-0.057119	-0.296024	-0.126472	-0.104479	0.698983	2.09	-0.135236	-0.181941	-0.338555	0.575947	2.09
